<svg width="331" height="506" viewBox="0 0 331 506" fill="none" xmlns="http://www.w3.org/2000/svg">
<circle cx="8" cy="498" r="7.5" transform="rotate(-90 8 498)" fill="#E9E6F5"/>
<circle cx="43" cy="498" r="7.5" transform="rotate(-90 43 498)" fill="#E9E6F5"/>
<circle cx="78" cy="498" r="7.5" transform="rotate(-90 78 498)" fill="#E9E6F5"/>
<circle cx="113" cy="498" r="7.5" transform="rotate(-90 113 498)" fill="#E9E6F5"/>
<circle cx="148" cy="498" r="7.5" transform="rotate(-90 148 498)" fill="#E9E6F5"/>
<circle cx="183" cy="498" r="7.5" transform="rotate(-90 183 498)" fill="#E9E6F5"/>
<circle cx="218" cy="498" r="7.5" transform="rotate(-90 218 498)" fill="#E9E6F5"/>
<circle cx="253" cy="498" r="7.5" transform="rotate(-90 253 498)" fill="#E9E6F5"/>
<circle cx="288" cy="498" r="7.5" transform="rotate(-90 288 498)" fill="#E9E6F5"/>
<circle cx="323" cy="498" r="7.5" transform="rotate(-90 323 498)" fill="#E9E6F5"/>
<circle cx="8" cy="463" r="7.5" transform="rotate(-90 8 463)" fill="#E9E6F5"/>
<circle cx="43" cy="463" r="7.5" transform="rotate(-90 43 463)" fill="#E9E6F5"/>
<circle cx="78" cy="463" r="7.5" transform="rotate(-90 78 463)" fill="#E9E6F5"/>
<circle cx="113" cy="463" r="7.5" transform="rotate(-90 113 463)" fill="#E9E6F5"/>
<circle cx="148" cy="463" r="7.5" transform="rotate(-90 148 463)" fill="#E9E6F5"/>
<circle cx="183" cy="463" r="7.5" transform="rotate(-90 183 463)" fill="#E9E6F5"/>
<circle cx="218" cy="463" r="7.5" transform="rotate(-90 218 463)" fill="#E9E6F5"/>
<circle cx="253" cy="463" r="7.5" transform="rotate(-90 253 463)" fill="#E9E6F5"/>
<circle cx="288" cy="463" r="7.5" transform="rotate(-90 288 463)" fill="#E9E6F5"/>
<circle cx="323" cy="463" r="7.5" transform="rotate(-90 323 463)" fill="#E9E6F5"/>
<circle cx="8" cy="428" r="7.5" transform="rotate(-90 8 428)" fill="#E9E6F5"/>
<circle cx="43" cy="428" r="7.5" transform="rotate(-90 43 428)" fill="#E9E6F5"/>
<circle cx="78" cy="428" r="7.5" transform="rotate(-90 78 428)" fill="#E9E6F5"/>
<circle cx="113" cy="428" r="7.5" transform="rotate(-90 113 428)" fill="#E9E6F5"/>
<circle cx="148" cy="428" r="7.5" transform="rotate(-90 148 428)" fill="#E9E6F5"/>
<circle cx="183" cy="428" r="7.5" transform="rotate(-90 183 428)" fill="#E9E6F5"/>
<circle cx="218" cy="428" r="7.5" transform="rotate(-90 218 428)" fill="#E9E6F5"/>
<circle cx="253" cy="428" r="7.5" transform="rotate(-90 253 428)" fill="#E9E6F5"/>
<circle cx="288" cy="428" r="7.5" transform="rotate(-90 288 428)" fill="#E9E6F5"/>
<circle cx="323" cy="428" r="7.5" transform="rotate(-90 323 428)" fill="#E9E6F5"/>
<circle cx="8" cy="393" r="7.5" transform="rotate(-90 8 393)" fill="#E9E6F5"/>
<circle cx="43" cy="393" r="7.5" transform="rotate(-90 43 393)" fill="#E9E6F5"/>
<circle cx="78" cy="393" r="7.5" transform="rotate(-90 78 393)" fill="#E9E6F5"/>
<circle cx="113" cy="393" r="7.5" transform="rotate(-90 113 393)" fill="#E9E6F5"/>
<circle cx="148" cy="393" r="7.5" transform="rotate(-90 148 393)" fill="#E9E6F5"/>
<circle cx="183" cy="393" r="7.5" transform="rotate(-90 183 393)" fill="#E9E6F5"/>
<circle cx="218" cy="393" r="7.5" transform="rotate(-90 218 393)" fill="#E9E6F5"/>
<circle cx="253" cy="393" r="7.5" transform="rotate(-90 253 393)" fill="#E9E6F5"/>
<circle cx="288" cy="393" r="7.5" transform="rotate(-90 288 393)" fill="#E9E6F5"/>
<circle cx="323" cy="393" r="7.5" transform="rotate(-90 323 393)" fill="#E9E6F5"/>
<circle cx="8" cy="358" r="7.5" transform="rotate(-90 8 358)" fill="#E9E6F5"/>
<circle cx="43" cy="358" r="7.5" transform="rotate(-90 43 358)" fill="#E9E6F5"/>
<circle cx="78" cy="358" r="7.5" transform="rotate(-90 78 358)" fill="#E9E6F5"/>
<circle cx="113" cy="358" r="7.5" transform="rotate(-90 113 358)" fill="#E9E6F5"/>
<circle cx="148" cy="358" r="7.5" transform="rotate(-90 148 358)" fill="#E9E6F5"/>
<circle cx="183" cy="358" r="7.5" transform="rotate(-90 183 358)" fill="#E9E6F5"/>
<circle cx="218" cy="358" r="7.5" transform="rotate(-90 218 358)" fill="#E9E6F5"/>
<circle cx="253" cy="358" r="7.5" transform="rotate(-90 253 358)" fill="#E9E6F5"/>
<circle cx="288" cy="358" r="7.5" transform="rotate(-90 288 358)" fill="#E9E6F5"/>
<circle cx="323" cy="358" r="7.5" transform="rotate(-90 323 358)" fill="#E9E6F5"/>
<circle cx="8" cy="323" r="7.5" transform="rotate(-90 8 323)" fill="#E9E6F5"/>
<circle cx="43" cy="323" r="7.5" transform="rotate(-90 43 323)" fill="#E9E6F5"/>
<circle cx="78" cy="323" r="7.5" transform="rotate(-90 78 323)" fill="#E9E6F5"/>
<circle cx="113" cy="323" r="7.5" transform="rotate(-90 113 323)" fill="#E9E6F5"/>
<circle cx="148" cy="323" r="7.5" transform="rotate(-90 148 323)" fill="#E9E6F5"/>
<circle cx="183" cy="323" r="7.5" transform="rotate(-90 183 323)" fill="#E9E6F5"/>
<circle cx="218" cy="323" r="7.5" transform="rotate(-90 218 323)" fill="#E9E6F5"/>
<circle cx="253" cy="323" r="7.5" transform="rotate(-90 253 323)" fill="#E9E6F5"/>
<circle cx="288" cy="323" r="7.5" transform="rotate(-90 288 323)" fill="#E9E6F5"/>
<circle cx="323" cy="323" r="7.5" transform="rotate(-90 323 323)" fill="#E9E6F5"/>
<circle cx="8" cy="288" r="7.5" transform="rotate(-90 8 288)" fill="#E9E6F5"/>
<circle cx="43" cy="288" r="7.5" transform="rotate(-90 43 288)" fill="#E9E6F5"/>
<circle cx="78" cy="288" r="7.5" transform="rotate(-90 78 288)" fill="#E9E6F5"/>
<circle cx="113" cy="288" r="7.5" transform="rotate(-90 113 288)" fill="#E9E6F5"/>
<circle cx="148" cy="288" r="7.5" transform="rotate(-90 148 288)" fill="#E9E6F5"/>
<circle cx="183" cy="288" r="7.5" transform="rotate(-90 183 288)" fill="#E9E6F5"/>
<circle cx="218" cy="288" r="7.5" transform="rotate(-90 218 288)" fill="#E9E6F5"/>
<circle cx="253" cy="288" r="7.5" transform="rotate(-90 253 288)" fill="#E9E6F5"/>
<circle cx="288" cy="288" r="7.5" transform="rotate(-90 288 288)" fill="#E9E6F5"/>
<circle cx="323" cy="288" r="7.5" transform="rotate(-90 323 288)" fill="#E9E6F5"/>
<circle cx="8" cy="253" r="7.5" transform="rotate(-90 8 253)" fill="#E9E6F5"/>
<circle cx="43" cy="253" r="7.5" transform="rotate(-90 43 253)" fill="#E9E6F5"/>
<circle cx="78" cy="253" r="7.5" transform="rotate(-90 78 253)" fill="#E9E6F5"/>
<circle cx="113" cy="253" r="7.5" transform="rotate(-90 113 253)" fill="#E9E6F5"/>
<circle cx="148" cy="253" r="7.5" transform="rotate(-90 148 253)" fill="#E9E6F5"/>
<circle cx="183" cy="253" r="7.5" transform="rotate(-90 183 253)" fill="#E9E6F5"/>
<circle cx="218" cy="253" r="7.5" transform="rotate(-90 218 253)" fill="#E9E6F5"/>
<circle cx="253" cy="253" r="7.5" transform="rotate(-90 253 253)" fill="#E9E6F5"/>
<circle cx="288" cy="253" r="7.5" transform="rotate(-90 288 253)" fill="#E9E6F5"/>
<circle cx="323" cy="253" r="7.5" transform="rotate(-90 323 253)" fill="#E9E6F5"/>
<circle cx="8" cy="218" r="7.5" transform="rotate(-90 8 218)" fill="#E9E6F5"/>
<circle cx="43" cy="218" r="7.5" transform="rotate(-90 43 218)" fill="#E9E6F5"/>
<circle cx="78" cy="218" r="7.5" transform="rotate(-90 78 218)" fill="#E9E6F5"/>
<circle cx="113" cy="218" r="7.5" transform="rotate(-90 113 218)" fill="#E9E6F5"/>
<circle cx="148" cy="218" r="7.5" transform="rotate(-90 148 218)" fill="#E9E6F5"/>
<circle cx="183" cy="218" r="7.5" transform="rotate(-90 183 218)" fill="#E9E6F5"/>
<circle cx="218" cy="218" r="7.5" transform="rotate(-90 218 218)" fill="#E9E6F5"/>
<circle cx="253" cy="218" r="7.5" transform="rotate(-90 253 218)" fill="#E9E6F5"/>
<circle cx="288" cy="218" r="7.5" transform="rotate(-90 288 218)" fill="#E9E6F5"/>
<circle cx="323" cy="218" r="7.5" transform="rotate(-90 323 218)" fill="#E9E6F5"/>
<circle cx="8" cy="183" r="7.5" transform="rotate(-90 8 183)" fill="#E9E6F5"/>
<circle cx="43" cy="183" r="7.5" transform="rotate(-90 43 183)" fill="#E9E6F5"/>
<circle cx="78" cy="183" r="7.5" transform="rotate(-90 78 183)" fill="#E9E6F5"/>
<circle cx="113" cy="183" r="7.5" transform="rotate(-90 113 183)" fill="#E9E6F5"/>
<circle cx="148" cy="183" r="7.5" transform="rotate(-90 148 183)" fill="#E9E6F5"/>
<circle cx="183" cy="183" r="7.5" transform="rotate(-90 183 183)" fill="#E9E6F5"/>
<circle cx="218" cy="183" r="7.5" transform="rotate(-90 218 183)" fill="#E9E6F5"/>
<circle cx="253" cy="183" r="7.5" transform="rotate(-90 253 183)" fill="#E9E6F5"/>
<circle cx="288" cy="183" r="7.5" transform="rotate(-90 288 183)" fill="#E9E6F5"/>
<circle cx="323" cy="183" r="7.5" transform="rotate(-90 323 183)" fill="#E9E6F5"/>
<circle cx="8" cy="148" r="7.5" transform="rotate(-90 8 148)" fill="#E9E6F5"/>
<circle cx="43" cy="148" r="7.5" transform="rotate(-90 43 148)" fill="#E9E6F5"/>
<circle cx="78" cy="148" r="7.5" transform="rotate(-90 78 148)" fill="#E9E6F5"/>
<circle cx="113" cy="148" r="7.5" transform="rotate(-90 113 148)" fill="#E9E6F5"/>
<circle cx="148" cy="148" r="7.5" transform="rotate(-90 148 148)" fill="#E9E6F5"/>
<circle cx="183" cy="148" r="7.5" transform="rotate(-90 183 148)" fill="#E9E6F5"/>
<circle cx="218" cy="148" r="7.5" transform="rotate(-90 218 148)" fill="#E9E6F5"/>
<circle cx="253" cy="148" r="7.5" transform="rotate(-90 253 148)" fill="#E9E6F5"/>
<circle cx="288" cy="148" r="7.5" transform="rotate(-90 288 148)" fill="#E9E6F5"/>
<circle cx="323" cy="148" r="7.5" transform="rotate(-90 323 148)" fill="#E9E6F5"/>
<circle cx="8" cy="113" r="7.5" transform="rotate(-90 8 113)" fill="#E9E6F5"/>
<circle cx="43" cy="113" r="7.5" transform="rotate(-90 43 113)" fill="#E9E6F5"/>
<circle cx="78" cy="113" r="7.5" transform="rotate(-90 78 113)" fill="#E9E6F5"/>
<circle cx="113" cy="113" r="7.5" transform="rotate(-90 113 113)" fill="#E9E6F5"/>
<circle cx="148" cy="113" r="7.5" transform="rotate(-90 148 113)" fill="#E9E6F5"/>
<circle cx="183" cy="113" r="7.5" transform="rotate(-90 183 113)" fill="#E9E6F5"/>
<circle cx="218" cy="113" r="7.5" transform="rotate(-90 218 113)" fill="#E9E6F5"/>
<circle cx="253" cy="113" r="7.5" transform="rotate(-90 253 113)" fill="#E9E6F5"/>
<circle cx="288" cy="113" r="7.5" transform="rotate(-90 288 113)" fill="#E9E6F5"/>
<circle cx="323" cy="113" r="7.5" transform="rotate(-90 323 113)" fill="#E9E6F5"/>
<circle cx="8" cy="78" r="7.5" transform="rotate(-90 8 78)" fill="#E9E6F5"/>
<circle cx="43" cy="78" r="7.5" transform="rotate(-90 43 78)" fill="#E9E6F5"/>
<circle cx="78" cy="78" r="7.5" transform="rotate(-90 78 78)" fill="#E9E6F5"/>
<circle cx="113" cy="78" r="7.5" transform="rotate(-90 113 78)" fill="#E9E6F5"/>
<circle cx="148" cy="78" r="7.5" transform="rotate(-90 148 78)" fill="#E9E6F5"/>
<circle cx="183" cy="78" r="7.5" transform="rotate(-90 183 78)" fill="#E9E6F5"/>
<circle cx="218" cy="78" r="7.5" transform="rotate(-90 218 78)" fill="#E9E6F5"/>
<circle cx="253" cy="78" r="7.5" transform="rotate(-90 253 78)" fill="#E9E6F5"/>
<circle cx="288" cy="78" r="7.5" transform="rotate(-90 288 78)" fill="#E9E6F5"/>
<circle cx="323" cy="78" r="7.5" transform="rotate(-90 323 78)" fill="#E9E6F5"/>
<circle cx="8" cy="43" r="7.5" transform="rotate(-90 8 43)" fill="#E9E6F5"/>
<circle cx="43" cy="43" r="7.5" transform="rotate(-90 43 43)" fill="#E9E6F5"/>
<circle cx="78" cy="43" r="7.5" transform="rotate(-90 78 43)" fill="#E9E6F5"/>
<circle cx="113" cy="43" r="7.5" transform="rotate(-90 113 43)" fill="#E9E6F5"/>
<circle cx="148" cy="43" r="7.5" transform="rotate(-90 148 43)" fill="#E9E6F5"/>
<circle cx="183" cy="43" r="7.5" transform="rotate(-90 183 43)" fill="#E9E6F5"/>
<circle cx="218" cy="43" r="7.5" transform="rotate(-90 218 43)" fill="#E9E6F5"/>
<circle cx="253" cy="43" r="7.5" transform="rotate(-90 253 43)" fill="#E9E6F5"/>
<circle cx="288" cy="43" r="7.5" transform="rotate(-90 288 43)" fill="#E9E6F5"/>
<circle cx="323" cy="43" r="7.5" transform="rotate(-90 323 43)" fill="#E9E6F5"/>
<circle cx="8" cy="8" r="7.5" transform="rotate(-90 8 8)" fill="#E9E6F5"/>
<circle cx="43" cy="8" r="7.5" transform="rotate(-90 43 8)" fill="#E9E6F5"/>
<circle cx="78" cy="8" r="7.5" transform="rotate(-90 78 8)" fill="#E9E6F5"/>
<circle cx="113" cy="8" r="7.5" transform="rotate(-90 113 8)" fill="#E9E6F5"/>
<circle cx="148" cy="8" r="7.5" transform="rotate(-90 148 8)" fill="#E9E6F5"/>
<circle cx="183" cy="8" r="7.5" transform="rotate(-90 183 8)" fill="#E9E6F5"/>
<circle cx="218" cy="8" r="7.5" transform="rotate(-90 218 8)" fill="#E9E6F5"/>
<circle cx="253" cy="8" r="7.5" transform="rotate(-90 253 8)" fill="#E9E6F5"/>
<circle cx="288" cy="8" r="7.5" transform="rotate(-90 288 8)" fill="#E9E6F5"/>
<circle cx="323" cy="8" r="7.5" transform="rotate(-90 323 8)" fill="#E9E6F5"/>
</svg>
